<?xml version="1.0" encoding="UTF-8" standalone="no"?>
<!-- Generator: Gravit.io -->

<svg
   xmlns:dc="http://purl.org/dc/elements/1.1/"
   xmlns:cc="http://creativecommons.org/ns#"
   xmlns:rdf="http://www.w3.org/1999/02/22-rdf-syntax-ns#"
   xmlns:svg="http://www.w3.org/2000/svg"
   xmlns="http://www.w3.org/2000/svg"
   xmlns:sodipodi="http://sodipodi.sourceforge.net/DTD/sodipodi-0.dtd"
   xmlns:inkscape="http://www.inkscape.org/namespaces/inkscape"
   style="isolation:isolate"
   viewBox="0 0 16 16"
   width="16pt"
   height="16pt"
   version="1.1"
   id="svg7358"
   sodipodi:docname="left-arrow.svg"
   inkscape:version="">
  <metadata
     id="metadata7362">
    <rdf:RDF>
      <cc:Work
         rdf:about="">
        <dc:format>image/svg+xml</dc:format>
        <dc:type
           rdf:resource="http://purl.org/dc/dcmitype/StillImage" />
        <dc:title></dc:title>
      </cc:Work>
    </rdf:RDF>
  </metadata>
  <sodipodi:namedview
     pagecolor="#ffffff"
     bordercolor="#666666"
     borderopacity="1"
     objecttolerance="10"
     gridtolerance="10"
     guidetolerance="10"
     inkscape:pageopacity="0"
     inkscape:pageshadow="2"
     inkscape:window-width="1366"
     inkscape:window-height="747"
     id="namedview7360"
     showgrid="false"
     inkscape:pagecheckerboard="true"
     inkscape:zoom="26.25"
     inkscape:cx="10.038095"
     inkscape:cy="10.666667"
     inkscape:window-x="0"
     inkscape:window-y="21"
     inkscape:window-maximized="1"
     inkscape:current-layer="svg7358" />
  <defs
     id="defs7341">
    <clipPath
       id="_clipPath_PpfR5fab9tbGxYbUfQVkTJFm7YRqqTUb">
      <rect
         width="16"
         height="16"
         id="rect7338" />
    </clipPath>
  </defs>
  <g
     clip-path="url(#_clipPath_PpfR5fab9tbGxYbUfQVkTJFm7YRqqTUb)"
     id="g7356"
     style="fill:#b5b6b6;fill-opacity:1"
     inkscape:export-xdpi="152.46001"
     inkscape:export-ydpi="152.46001">
    <clipPath
       id="_clipPath_gCUfjBwNWzpMZYyhmC7KVQmxY9b0HYMI">
      <rect
         x="0"
         y="0"
         width="16"
         height="16"
         transform="matrix(1,0,0,1,0,0)"
         fill="rgb(255,255,255)"
         id="rect7343" />
    </clipPath>
    <g
       clip-path="url(#_clipPath_gCUfjBwNWzpMZYyhmC7KVQmxY9b0HYMI)"
       id="g7354"
       style="fill:#b5b6b6;fill-opacity:1">
      <g
         id="g7352"
         style="fill:#b5b6b6;fill-opacity:1">
        <g
           id="g7350"
           style="fill:#b5b6b6;fill-opacity:1">
          <g
             id="g7348"
             style="fill:#b5b6b6;fill-opacity:1">
            <path
               d=" M 6.459 8.003 L 12.444 2.018 C 12.609 1.853 12.7 1.633 12.7 1.399 C 12.7 1.164 12.609 0.945 12.444 0.78 L 11.92 0.256 C 11.755 0.091 11.535 0 11.301 0 C 11.067 0 10.847 0.091 10.682 0.256 L 3.555 7.382 C 3.39 7.548 3.3 7.768 3.3 8.003 C 3.3 8.239 3.39 8.459 3.555 8.625 L 10.676 15.744 C 10.84 15.909 11.06 16 11.294 16 C 11.529 16 11.749 15.909 11.913 15.744 L 12.438 15.22 C 12.779 14.879 12.779 14.323 12.438 13.982 L 6.459 8.003 L 6.459 8.003 Z "
               fill="rgb(255,255,255)"
               id="path7346"
               style="fill:#b5b6b6;fill-opacity:1" />
          </g>
        </g>
      </g>
    </g>
  </g>
</svg>
